<svg xmlns="http://www.w3.org/2000/svg" xmlns:xlink="http://www.w3.org/1999/xlink" preserveAspectRatio="xMidYMid" width="70" height="70" viewBox="0 0 70 70">
  <defs>
    <style>
      .cls-1 {
        fill: #f63c3c;
      }

      .cls-2 {
        fill: #fff;
        fill-rule: evenodd;
      }
    </style>
  </defs>
  <rect width="70" height="70" class="cls-1"/>
  <path d="M44.705,30.194 L43.962,25.886 L40.040,25.886 L39.357,30.194 L36.683,30.194 L39.981,11.596 L43.873,11.596 L47.408,30.194 L44.705,30.194 ZM41.912,13.914 L40.367,23.717 L43.606,23.717 L41.912,13.914 ZM28.217,52.505 L25.038,52.505 C23.196,52.505 22.275,51.624 22.275,49.861 L22.275,36.492 C22.275,34.750 23.196,33.878 25.038,33.878 L28.217,33.878 C30.059,33.878 30.979,34.750 30.979,36.492 L30.979,39.315 L28.276,39.315 L28.276,36.849 C28.276,36.492 28.217,36.260 28.098,36.150 C27.979,36.042 27.741,35.987 27.385,35.987 L25.870,35.987 C25.513,35.987 25.276,36.042 25.157,36.150 C25.038,36.260 24.978,36.492 24.978,36.849 L24.978,49.534 C24.978,49.891 25.038,50.124 25.157,50.232 C25.276,50.341 25.513,50.395 25.870,50.395 L27.385,50.395 C27.741,50.395 27.979,50.341 28.098,50.232 C28.217,50.124 28.276,49.891 28.276,49.534 L28.276,44.988 L26.791,44.988 L26.791,42.909 L30.979,42.909 L30.979,49.861 C30.979,51.624 30.059,52.505 28.217,52.505 ZM28.009,30.194 L25.127,30.194 C23.285,30.194 22.364,29.323 22.364,27.579 L22.364,24.846 L25.068,24.846 L25.068,27.163 C25.068,27.520 25.127,27.753 25.246,27.862 C25.365,27.971 25.602,28.025 25.959,28.025 L27.206,28.025 C27.563,28.025 27.796,27.971 27.905,27.862 C28.013,27.753 28.068,27.520 28.068,27.163 L28.068,22.618 C28.068,22.262 28.013,22.030 27.905,21.920 C27.796,21.812 27.563,21.757 27.206,21.757 L25.008,21.757 C23.206,21.757 22.305,20.876 22.305,19.113 L22.305,14.211 C22.305,12.468 23.226,11.596 25.068,11.596 L27.979,11.596 C29.821,11.596 30.742,12.468 30.742,14.211 L30.742,16.944 L28.038,16.944 L28.038,14.627 C28.038,14.270 27.979,14.038 27.860,13.928 C27.741,13.820 27.504,13.765 27.147,13.765 L25.899,13.765 C25.543,13.765 25.305,13.820 25.186,13.928 C25.068,14.038 25.008,14.270 25.008,14.627 L25.008,18.756 C25.008,19.113 25.068,19.346 25.186,19.454 C25.305,19.564 25.543,19.618 25.899,19.618 L28.068,19.618 C29.890,19.618 30.801,20.490 30.801,22.232 L30.801,27.579 C30.801,29.323 29.870,30.194 28.009,30.194 ZM46.205,57.842 L22.438,57.842 L22.438,55.465 L46.205,55.465 L46.205,57.842 ZM46.250,50.306 L46.250,52.475 L38.169,52.475 L38.169,33.878 L46.042,33.878 L46.042,36.046 L40.872,36.046 L40.872,41.780 L45.150,41.780 L45.150,43.949 L40.872,43.949 L40.872,50.306 L46.250,50.306 Z" class="cls-2"/>
</svg>
